<mxfile host="app.diagrams.net" agent="Mozilla/5.0 (X11; Ubuntu; Linux x86_64; rv:133.0) Gecko/20100101 Firefox/133.0" version="25.0.3">
  <diagram name="Page-1" id="QwbmtCwyZoCpysy4_769">
    <mxGraphModel dx="1730" dy="519" grid="1" gridSize="10" guides="1" tooltips="1" connect="1" arrows="1" fold="1" page="1" pageScale="1" pageWidth="850" pageHeight="1100" math="0" shadow="0">
      <root>
        <mxCell id="0" />
        <mxCell id="1" parent="0" />
        <mxCell id="9WpM92df16-8UvDXL8NV-50" style="edgeStyle=orthogonalEdgeStyle;rounded=0;orthogonalLoop=1;jettySize=auto;html=1;entryX=0.5;entryY=0;entryDx=0;entryDy=0;" parent="1" source="9WpM92df16-8UvDXL8NV-1" target="9WpM92df16-8UvDXL8NV-4" edge="1">
          <mxGeometry relative="1" as="geometry" />
        </mxCell>
        <mxCell id="9WpM92df16-8UvDXL8NV-1" value="&lt;div&gt;nms_server.py&lt;/div&gt;" style="rounded=0;whiteSpace=wrap;html=1;" parent="1" vertex="1">
          <mxGeometry x="100" y="80" width="120" height="40" as="geometry" />
        </mxCell>
        <mxCell id="9WpM92df16-8UvDXL8NV-3" value="&lt;div&gt;nms_agent/&lt;/div&gt;" style="swimlane;whiteSpace=wrap;html=1;" parent="1" vertex="1">
          <mxGeometry x="540" y="160" width="200" height="330" as="geometry" />
        </mxCell>
        <mxCell id="9WpM92df16-8UvDXL8NV-18" value="&lt;div&gt;tcp.py&lt;/div&gt;" style="rounded=1;whiteSpace=wrap;html=1;" parent="9WpM92df16-8UvDXL8NV-3" vertex="1">
          <mxGeometry x="40" y="30" width="120" height="40" as="geometry" />
        </mxCell>
        <mxCell id="9WpM92df16-8UvDXL8NV-19" value="&lt;div&gt;udp.py&lt;/div&gt;" style="rounded=1;whiteSpace=wrap;html=1;" parent="9WpM92df16-8UvDXL8NV-3" vertex="1">
          <mxGeometry x="40" y="80" width="120" height="40" as="geometry" />
        </mxCell>
        <mxCell id="9WpM92df16-8UvDXL8NV-30" value="&lt;div&gt;pool.py&lt;/div&gt;" style="rounded=1;whiteSpace=wrap;html=1;" parent="9WpM92df16-8UvDXL8NV-3" vertex="1">
          <mxGeometry x="40" y="130" width="120" height="40" as="geometry" />
        </mxCell>
        <mxCell id="9WpM92df16-8UvDXL8NV-31" value="&lt;div&gt;task.py&lt;/div&gt;" style="rounded=1;whiteSpace=wrap;html=1;" parent="9WpM92df16-8UvDXL8NV-3" vertex="1">
          <mxGeometry x="40" y="180" width="120" height="40" as="geometry" />
        </mxCell>
        <mxCell id="nubsR7cEdCL_VSrjcbDp-10" value="&lt;div&gt;task_tools/&lt;/div&gt;" style="swimlane;whiteSpace=wrap;html=1;startSize=23;" parent="9WpM92df16-8UvDXL8NV-3" vertex="1">
          <mxGeometry x="10" y="230" width="180" height="90" as="geometry" />
        </mxCell>
        <mxCell id="nubsR7cEdCL_VSrjcbDp-12" value="link.py" style="rounded=1;whiteSpace=wrap;html=1;" parent="nubsR7cEdCL_VSrjcbDp-10" vertex="1">
          <mxGeometry x="30" y="60" width="120" height="20" as="geometry" />
        </mxCell>
        <mxCell id="nubsR7cEdCL_VSrjcbDp-11" value="device.py" style="rounded=1;whiteSpace=wrap;html=1;" parent="nubsR7cEdCL_VSrjcbDp-10" vertex="1">
          <mxGeometry x="30" y="30" width="120" height="20" as="geometry" />
        </mxCell>
        <mxCell id="oBDTSBUbX0n5xWZJhXnn-3" style="edgeStyle=orthogonalEdgeStyle;rounded=0;orthogonalLoop=1;jettySize=auto;html=1;exitX=0;exitY=0.5;exitDx=0;exitDy=0;" edge="1" parent="1" source="9WpM92df16-8UvDXL8NV-4">
          <mxGeometry relative="1" as="geometry">
            <mxPoint x="20" y="325" as="targetPoint" />
          </mxGeometry>
        </mxCell>
        <mxCell id="9WpM92df16-8UvDXL8NV-4" value="&lt;div&gt;nms_server/&lt;/div&gt;" style="swimlane;whiteSpace=wrap;html=1;" parent="1" vertex="1">
          <mxGeometry x="60" y="160" width="200" height="330" as="geometry" />
        </mxCell>
        <mxCell id="9WpM92df16-8UvDXL8NV-13" value="&lt;div&gt;config.py&lt;/div&gt;" style="rounded=1;whiteSpace=wrap;html=1;" parent="9WpM92df16-8UvDXL8NV-4" vertex="1">
          <mxGeometry x="40" y="180" width="120" height="40" as="geometry" />
        </mxCell>
        <mxCell id="9WpM92df16-8UvDXL8NV-14" value="&lt;div&gt;udp.py&lt;/div&gt;" style="rounded=1;whiteSpace=wrap;html=1;" parent="9WpM92df16-8UvDXL8NV-4" vertex="1">
          <mxGeometry x="40" y="80" width="120" height="40" as="geometry" />
        </mxCell>
        <mxCell id="9WpM92df16-8UvDXL8NV-15" value="&lt;div&gt;tcp.py&lt;/div&gt;" style="rounded=1;whiteSpace=wrap;html=1;" parent="9WpM92df16-8UvDXL8NV-4" vertex="1">
          <mxGeometry x="40" y="30" width="120" height="40" as="geometry" />
        </mxCell>
        <mxCell id="9WpM92df16-8UvDXL8NV-16" value="&lt;div&gt;pool.py&lt;/div&gt;" style="rounded=1;whiteSpace=wrap;html=1;" parent="9WpM92df16-8UvDXL8NV-4" vertex="1">
          <mxGeometry x="40" y="130" width="120" height="40" as="geometry" />
        </mxCell>
        <mxCell id="9WpM92df16-8UvDXL8NV-17" value="&lt;div&gt;task.py&lt;/div&gt;" style="rounded=1;whiteSpace=wrap;html=1;" parent="9WpM92df16-8UvDXL8NV-4" vertex="1">
          <mxGeometry x="40" y="230" width="120" height="40" as="geometry" />
        </mxCell>
        <mxCell id="9WpM92df16-8UvDXL8NV-20" value="&lt;div&gt;ui.py&lt;/div&gt;" style="rounded=1;whiteSpace=wrap;html=1;" parent="9WpM92df16-8UvDXL8NV-4" vertex="1">
          <mxGeometry x="40" y="280" width="120" height="40" as="geometry" />
        </mxCell>
        <mxCell id="9WpM92df16-8UvDXL8NV-52" style="edgeStyle=orthogonalEdgeStyle;rounded=0;orthogonalLoop=1;jettySize=auto;html=1;exitX=0.75;exitY=0;exitDx=0;exitDy=0;" parent="1" source="9WpM92df16-8UvDXL8NV-4" target="9WpM92df16-8UvDXL8NV-5" edge="1">
          <mxGeometry relative="1" as="geometry" />
        </mxCell>
        <mxCell id="9WpM92df16-8UvDXL8NV-53" style="edgeStyle=orthogonalEdgeStyle;rounded=0;orthogonalLoop=1;jettySize=auto;html=1;exitX=0.25;exitY=0;exitDx=0;exitDy=0;" parent="1" source="9WpM92df16-8UvDXL8NV-3" target="9WpM92df16-8UvDXL8NV-5" edge="1">
          <mxGeometry relative="1" as="geometry" />
        </mxCell>
        <mxCell id="9WpM92df16-8UvDXL8NV-5" value="&lt;div&gt;constants.py&lt;/div&gt;" style="rounded=1;whiteSpace=wrap;html=1;" parent="1" vertex="1">
          <mxGeometry x="340" y="120" width="120" height="40" as="geometry" />
        </mxCell>
        <mxCell id="9WpM92df16-8UvDXL8NV-51" style="edgeStyle=orthogonalEdgeStyle;rounded=0;orthogonalLoop=1;jettySize=auto;html=1;entryX=0.5;entryY=0;entryDx=0;entryDy=0;" parent="1" source="9WpM92df16-8UvDXL8NV-2" target="9WpM92df16-8UvDXL8NV-3" edge="1">
          <mxGeometry relative="1" as="geometry" />
        </mxCell>
        <mxCell id="9WpM92df16-8UvDXL8NV-2" value="nms_agent.py" style="rounded=0;whiteSpace=wrap;html=1;" parent="1" vertex="1">
          <mxGeometry x="580" y="80" width="120" height="40" as="geometry" />
        </mxCell>
        <mxCell id="9WpM92df16-8UvDXL8NV-6" value="&lt;div&gt;protocol/&lt;/div&gt;" style="swimlane;whiteSpace=wrap;html=1;" parent="1" vertex="1">
          <mxGeometry x="300" y="200" width="200" height="260" as="geometry" />
        </mxCell>
        <mxCell id="9WpM92df16-8UvDXL8NV-7" value="&lt;div&gt;exceptions/&lt;/div&gt;" style="swimlane;whiteSpace=wrap;html=1;" parent="9WpM92df16-8UvDXL8NV-6" vertex="1">
          <mxGeometry x="10" y="130" width="180" height="120" as="geometry" />
        </mxCell>
        <mxCell id="9WpM92df16-8UvDXL8NV-8" value="checksum_mismatch.py" style="rounded=1;whiteSpace=wrap;html=1;" parent="9WpM92df16-8UvDXL8NV-7" vertex="1">
          <mxGeometry x="20" y="30" width="140" height="20" as="geometry" />
        </mxCell>
        <mxCell id="9WpM92df16-8UvDXL8NV-10" value="invalid_header.py" style="rounded=1;whiteSpace=wrap;html=1;" parent="9WpM92df16-8UvDXL8NV-7" vertex="1">
          <mxGeometry x="30" y="60" width="120" height="20" as="geometry" />
        </mxCell>
        <mxCell id="9WpM92df16-8UvDXL8NV-9" value="invalid_version.py" style="rounded=1;whiteSpace=wrap;html=1;" parent="9WpM92df16-8UvDXL8NV-7" vertex="1">
          <mxGeometry x="30" y="90" width="120" height="20" as="geometry" />
        </mxCell>
        <mxCell id="9WpM92df16-8UvDXL8NV-11" value="alert_flow.py" style="rounded=1;whiteSpace=wrap;html=1;" parent="9WpM92df16-8UvDXL8NV-6" vertex="1">
          <mxGeometry x="40" y="30" width="120" height="40" as="geometry" />
        </mxCell>
        <mxCell id="9WpM92df16-8UvDXL8NV-12" value="net_task.py" style="rounded=1;whiteSpace=wrap;html=1;" parent="9WpM92df16-8UvDXL8NV-6" vertex="1">
          <mxGeometry x="40" y="80" width="120" height="40" as="geometry" />
        </mxCell>
        <mxCell id="9WpM92df16-8UvDXL8NV-21" value="&lt;div&gt;sql/&lt;/div&gt;" style="swimlane;whiteSpace=wrap;html=1;startSize=23;" parent="1" vertex="1">
          <mxGeometry x="-180" y="160" width="200" height="630" as="geometry" />
        </mxCell>
        <mxCell id="9WpM92df16-8UvDXL8NV-28" value="database.py" style="rounded=0;whiteSpace=wrap;html=1;" parent="9WpM92df16-8UvDXL8NV-21" vertex="1">
          <mxGeometry x="40" y="30" width="120" height="40" as="geometry" />
        </mxCell>
        <mxCell id="9WpM92df16-8UvDXL8NV-33" value="&lt;div&gt;create/&lt;/div&gt;" style="swimlane;whiteSpace=wrap;html=1;" parent="9WpM92df16-8UvDXL8NV-21" vertex="1">
          <mxGeometry x="10" y="80" width="180" height="150" as="geometry" />
        </mxCell>
        <mxCell id="9WpM92df16-8UvDXL8NV-34" value="log.sql" style="rounded=1;whiteSpace=wrap;html=1;dashed=1;" parent="9WpM92df16-8UvDXL8NV-33" vertex="1">
          <mxGeometry x="30" y="30" width="120" height="20" as="geometry" />
        </mxCell>
        <mxCell id="9WpM92df16-8UvDXL8NV-35" value="log_type.sql" style="rounded=1;whiteSpace=wrap;html=1;dashed=1;" parent="9WpM92df16-8UvDXL8NV-33" vertex="1">
          <mxGeometry x="30" y="60" width="120" height="20" as="geometry" />
        </mxCell>
        <mxCell id="9WpM92df16-8UvDXL8NV-36" value="&lt;font color=&quot;#000000&quot;&gt;alert_type.sql&lt;/font&gt;" style="rounded=1;whiteSpace=wrap;html=1;fontColor=#a51d2d;dashed=1;" parent="9WpM92df16-8UvDXL8NV-33" vertex="1">
          <mxGeometry x="30" y="90" width="120" height="20" as="geometry" />
        </mxCell>
        <mxCell id="RlaziEXPzyf_Nz6PPYE7-1" value="&lt;font color=&quot;#000000&quot;&gt;metric.sql&lt;/font&gt;" style="rounded=1;whiteSpace=wrap;html=1;fontColor=#a51d2d;dashed=1;" parent="9WpM92df16-8UvDXL8NV-33" vertex="1">
          <mxGeometry x="30" y="120" width="120" height="20" as="geometry" />
        </mxCell>
        <mxCell id="9WpM92df16-8UvDXL8NV-37" value="&lt;div&gt;populate/&lt;/div&gt;" style="swimlane;whiteSpace=wrap;html=1;startSize=23;" parent="9WpM92df16-8UvDXL8NV-21" vertex="1">
          <mxGeometry x="10" y="241" width="180" height="90" as="geometry" />
        </mxCell>
        <mxCell id="9WpM92df16-8UvDXL8NV-39" value="log_type.sql" style="rounded=1;whiteSpace=wrap;html=1;dashed=1;" parent="9WpM92df16-8UvDXL8NV-37" vertex="1">
          <mxGeometry x="30" y="30" width="120" height="20" as="geometry" />
        </mxCell>
        <mxCell id="9WpM92df16-8UvDXL8NV-40" value="alert_type.sql" style="rounded=1;whiteSpace=wrap;html=1;fontColor=#000000;dashed=1;" parent="9WpM92df16-8UvDXL8NV-37" vertex="1">
          <mxGeometry x="30" y="60" width="120" height="20" as="geometry" />
        </mxCell>
        <mxCell id="9WpM92df16-8UvDXL8NV-41" value="&lt;div&gt;queries/&lt;/div&gt;" style="swimlane;whiteSpace=wrap;html=1;startSize=23;" parent="9WpM92df16-8UvDXL8NV-21" vertex="1">
          <mxGeometry x="10" y="342" width="180" height="278" as="geometry" />
        </mxCell>
        <mxCell id="9WpM92df16-8UvDXL8NV-42" value="insert_alert.sql" style="rounded=1;whiteSpace=wrap;html=1;dashed=1;" parent="9WpM92df16-8UvDXL8NV-41" vertex="1">
          <mxGeometry x="30" y="148" width="120" height="20" as="geometry" />
        </mxCell>
        <mxCell id="RlaziEXPzyf_Nz6PPYE7-4" value="select_alert.sql" style="rounded=1;whiteSpace=wrap;html=1;dashed=1;" parent="9WpM92df16-8UvDXL8NV-41" vertex="1">
          <mxGeometry x="30" y="58" width="120" height="20" as="geometry" />
        </mxCell>
        <mxCell id="RlaziEXPzyf_Nz6PPYE7-5" value="select_log.sql" style="rounded=1;whiteSpace=wrap;html=1;dashed=1;" parent="9WpM92df16-8UvDXL8NV-41" vertex="1">
          <mxGeometry x="30" y="28" width="120" height="20" as="geometry" />
        </mxCell>
        <mxCell id="RlaziEXPzyf_Nz6PPYE7-6" value="select_metric.sql" style="rounded=1;whiteSpace=wrap;html=1;dashed=1;" parent="9WpM92df16-8UvDXL8NV-41" vertex="1">
          <mxGeometry x="30" y="88" width="120" height="20" as="geometry" />
        </mxCell>
        <mxCell id="nubsR7cEdCL_VSrjcbDp-9" value="insert_log.sql" style="rounded=1;whiteSpace=wrap;html=1;dashed=1;" parent="9WpM92df16-8UvDXL8NV-41" vertex="1">
          <mxGeometry x="30" y="118" width="120" height="20" as="geometry" />
        </mxCell>
        <mxCell id="nubsR7cEdCL_VSrjcbDp-2" value="&lt;div&gt;insert_metric/&lt;/div&gt;" style="swimlane;whiteSpace=wrap;html=1;startSize=23;" parent="9WpM92df16-8UvDXL8NV-41" vertex="1">
          <mxGeometry x="20" y="178" width="140" height="92" as="geometry" />
        </mxCell>
        <mxCell id="nubsR7cEdCL_VSrjcbDp-3" value="insert_metric.sql" style="rounded=1;whiteSpace=wrap;html=1;dashed=1;" parent="nubsR7cEdCL_VSrjcbDp-2" vertex="1">
          <mxGeometry x="10" y="30" width="120" height="20" as="geometry" />
        </mxCell>
        <mxCell id="nubsR7cEdCL_VSrjcbDp-4" value="insert_log.sql" style="rounded=1;whiteSpace=wrap;html=1;dashed=1;" parent="nubsR7cEdCL_VSrjcbDp-2" vertex="1">
          <mxGeometry x="10" y="60" width="120" height="20" as="geometry" />
        </mxCell>
        <mxCell id="9WpM92df16-8UvDXL8NV-46" style="edgeStyle=orthogonalEdgeStyle;rounded=0;orthogonalLoop=1;jettySize=auto;html=1;exitX=1;exitY=0.5;exitDx=0;exitDy=0;" parent="1" source="9WpM92df16-8UvDXL8NV-15" target="9WpM92df16-8UvDXL8NV-11" edge="1">
          <mxGeometry relative="1" as="geometry" />
        </mxCell>
        <mxCell id="9WpM92df16-8UvDXL8NV-47" style="edgeStyle=orthogonalEdgeStyle;rounded=0;orthogonalLoop=1;jettySize=auto;html=1;exitX=1;exitY=0.5;exitDx=0;exitDy=0;" parent="1" source="9WpM92df16-8UvDXL8NV-14" target="9WpM92df16-8UvDXL8NV-12" edge="1">
          <mxGeometry relative="1" as="geometry">
            <Array as="points">
              <mxPoint x="270" y="260" />
              <mxPoint x="270" y="300" />
            </Array>
          </mxGeometry>
        </mxCell>
        <mxCell id="9WpM92df16-8UvDXL8NV-48" style="edgeStyle=orthogonalEdgeStyle;rounded=0;orthogonalLoop=1;jettySize=auto;html=1;exitX=0;exitY=0.5;exitDx=0;exitDy=0;" parent="1" source="9WpM92df16-8UvDXL8NV-19" target="9WpM92df16-8UvDXL8NV-12" edge="1">
          <mxGeometry relative="1" as="geometry">
            <Array as="points">
              <mxPoint x="530" y="260" />
              <mxPoint x="530" y="300" />
            </Array>
          </mxGeometry>
        </mxCell>
        <mxCell id="9WpM92df16-8UvDXL8NV-49" style="edgeStyle=orthogonalEdgeStyle;rounded=0;orthogonalLoop=1;jettySize=auto;html=1;exitX=0;exitY=0.5;exitDx=0;exitDy=0;" parent="1" source="9WpM92df16-8UvDXL8NV-18" target="9WpM92df16-8UvDXL8NV-11" edge="1">
          <mxGeometry relative="1" as="geometry" />
        </mxCell>
        <mxCell id="9WpM92df16-8UvDXL8NV-60" value="" style="rounded=0;whiteSpace=wrap;html=1;dashed=1;" parent="1" vertex="1">
          <mxGeometry x="450" y="730" width="290" height="60" as="geometry" />
        </mxCell>
        <mxCell id="9WpM92df16-8UvDXL8NV-59" value="Legend:" style="text;html=1;align=center;verticalAlign=middle;whiteSpace=wrap;rounded=0;" parent="1" vertex="1">
          <mxGeometry x="450" y="730" width="60" height="20" as="geometry" />
        </mxCell>
        <mxCell id="9WpM92df16-8UvDXL8NV-63" value="&lt;i&gt;executable&lt;/i&gt;" style="rounded=0;whiteSpace=wrap;html=1;" parent="1" vertex="1">
          <mxGeometry x="457" y="752" width="70" height="30" as="geometry" />
        </mxCell>
        <mxCell id="9WpM92df16-8UvDXL8NV-64" value="&lt;i&gt;module&lt;/i&gt;" style="rounded=1;whiteSpace=wrap;html=1;" parent="1" vertex="1">
          <mxGeometry x="535" y="752" width="70" height="30" as="geometry" />
        </mxCell>
        <mxCell id="9WpM92df16-8UvDXL8NV-65" value="" style="endArrow=classic;html=1;rounded=0;" parent="1" edge="1">
          <mxGeometry width="50" height="50" relative="1" as="geometry">
            <mxPoint x="688" y="772" as="sourcePoint" />
            <mxPoint x="738" y="772" as="targetPoint" />
          </mxGeometry>
        </mxCell>
        <mxCell id="9WpM92df16-8UvDXL8NV-69" value="&lt;i&gt;uses&lt;/i&gt;" style="text;html=1;align=center;verticalAlign=middle;whiteSpace=wrap;rounded=0;" parent="1" vertex="1">
          <mxGeometry x="683" y="758" width="60" height="10" as="geometry" />
        </mxCell>
        <mxCell id="oBDTSBUbX0n5xWZJhXnn-2" style="edgeStyle=orthogonalEdgeStyle;rounded=0;orthogonalLoop=1;jettySize=auto;html=1;entryX=0.5;entryY=0;entryDx=0;entryDy=0;" edge="1" parent="1" source="oBDTSBUbX0n5xWZJhXnn-1" target="9WpM92df16-8UvDXL8NV-21">
          <mxGeometry relative="1" as="geometry" />
        </mxCell>
        <mxCell id="oBDTSBUbX0n5xWZJhXnn-1" value="&lt;div&gt;analysis.py&lt;/div&gt;" style="rounded=0;whiteSpace=wrap;html=1;" vertex="1" parent="1">
          <mxGeometry x="-140" y="80" width="120" height="40" as="geometry" />
        </mxCell>
        <mxCell id="oBDTSBUbX0n5xWZJhXnn-4" value="&lt;i&gt;sql file&lt;br&gt;&lt;/i&gt;" style="rounded=1;whiteSpace=wrap;html=1;dashed=1;" vertex="1" parent="1">
          <mxGeometry x="613" y="752" width="70" height="30" as="geometry" />
        </mxCell>
      </root>
    </mxGraphModel>
  </diagram>
</mxfile>
